<svg xmlns="http://www.w3.org/2000/svg" xmlns:xlink="http://www.w3.org/1999/xlink" version="1.1" x="0px" y="0px" viewBox="0 0 100 125" style="enable-background:new 0 0 100 100;" xml:space="preserve"><path d="M32.034,56.656L12.242,76.448c-3.118,3.118-3.118,8.192,0,11.31c1.559,1.559,3.607,2.339,5.655,2.339  c2.048,0,4.096-0.78,5.655-2.339l19.792-19.792c2.096-2.096,2.777-5.075,2.054-7.751l4.501-4.501l4.502,4.501  c-0.723,2.676-0.042,5.655,2.054,7.751l19.792,19.792c1.51,1.511,3.519,2.343,5.655,2.343s4.145-0.832,5.655-2.343  c3.118-3.118,3.118-8.192,0-11.31L67.766,56.656c-2.097-2.097-5.075-2.776-7.751-2.054L55.513,50.1l3.319-3.319  c2.157,1.223,4.597,1.89,7.148,1.913c0.047,0,0.093,0,0.14,0c3.956,0,7.669-1.538,10.469-4.338l12.296-12.296  c1.484-1.485,1.484-3.9,0-5.385c-1.484-1.485-3.901-1.485-5.386,0l-9.196,9.196c-0.661,0.66-1.735,0.66-2.395,0  c-0.32-0.32-0.496-0.745-0.496-1.197s0.176-0.877,0.496-1.197l9.196-9.196c0.719-0.719,1.115-1.675,1.115-2.692  s-0.396-1.974-1.115-2.693c-1.438-1.438-3.948-1.438-5.385,0l-9.196,9.196c-0.64,0.64-1.755,0.64-2.395,0  c-0.66-0.66-0.66-1.735,0-2.395l9.196-9.196c1.485-1.485,1.485-3.901,0-5.386c-1.484-1.484-3.901-1.484-5.385,0L55.967,23.087  c-4.916,4.916-5.847,12.371-2.721,18.053L49.9,44.487l-3.303-3.303c1.245-2.197,1.919-4.684,1.919-7.278  c0-3.957-1.541-7.676-4.338-10.473l-8.894-8.894c-5.775-5.776-15.172-5.775-20.946,0c-5.774,5.774-5.774,15.17,0,20.945l8.895,8.895  c2.887,2.887,6.68,4.331,10.473,4.331c2.514,0,5.022-0.649,7.273-1.917l3.309,3.309l-4.501,4.501  C37.109,53.879,34.131,54.559,32.034,56.656z M41.93,66.552L22.138,86.344c-2.338,2.338-6.142,2.339-8.482,0  c-2.338-2.338-2.338-6.144,0-8.482L33.448,58.07c1.169-1.169,2.705-1.753,4.241-1.753c1.536,0,3.072,0.584,4.241,1.753  C44.268,60.409,44.269,64.213,41.93,66.552z M62.111,56.316c1.536,0,3.072,0.584,4.241,1.753l19.792,19.792  c2.338,2.338,2.338,6.144,0,8.482c-1.133,1.133-2.639,1.757-4.241,1.757s-3.108-0.624-4.241-1.757L57.87,66.552  c-2.338-2.338-2.338-6.143,0-8.482C59.039,56.901,60.575,56.316,62.111,56.316z M58.029,55.444c-0.56,0.333-1.092,0.731-1.573,1.212  c-0.481,0.481-0.879,1.013-1.212,1.573l-3.93-3.93l2.785-2.785L58.029,55.444z M57.381,24.501l11.972-11.972  c0.353-0.352,0.815-0.528,1.279-0.528c0.463,0,0.926,0.176,1.278,0.528c0.705,0.705,0.705,1.853,0,2.558l-9.196,9.196  c-1.44,1.44-1.44,3.783,0,5.223c1.439,1.44,3.783,1.44,5.223,0l9.196-9.196c0.683-0.683,1.874-0.683,2.557,0  c0.341,0.342,0.529,0.796,0.529,1.279s-0.188,0.937-0.529,1.278l-9.196,9.196c-1.44,1.44-1.44,3.783,0,5.223  c1.439,1.44,3.784,1.439,5.223,0l9.196-9.196c0.705-0.705,1.853-0.705,2.558,0c0.705,0.705,0.705,1.852,0,2.557L75.174,42.943  c-2.451,2.452-5.697,3.75-9.176,3.752c-3.466-0.032-6.701-1.425-9.109-3.923C52.077,37.78,52.298,29.584,57.381,24.501z   M24.646,42.964l-8.895-8.895c-4.995-4.995-4.995-13.123,0-18.117c2.498-2.498,5.778-3.746,9.059-3.746  c3.281,0,6.562,1.249,9.059,3.746l8.894,8.894c4.995,4.995,4.995,13.123,0,18.118C37.768,47.959,29.64,47.958,24.646,42.964z   M42.681,45.667c0.518-0.396,1.023-0.816,1.496-1.289c0.471-0.471,0.892-0.976,1.29-1.495l3.018,3.018L45.7,48.686L42.681,45.667z   M54.352,42.862c0.339,0.448,0.699,0.884,1.097,1.297c0.527,0.547,1.099,1.033,1.69,1.486L44.556,58.229  c-0.333-0.56-0.731-1.092-1.212-1.573c-0.481-0.481-1.013-0.879-1.573-1.212L54.352,42.862z"/><text x="0" y="115" fill="#000000" font-size="5px" font-weight="bold" font-family="'Helvetica Neue', Helvetica, Arial-Unicode, Arial, Sans-serif">Created by Made by Made</text><text x="0" y="120" fill="#000000" font-size="5px" font-weight="bold" font-family="'Helvetica Neue', Helvetica, Arial-Unicode, Arial, Sans-serif">from the Noun Project</text></svg>