<svg xmlns="http://www.w3.org/2000/svg" xmlns:xlink="http://www.w3.org/1999/xlink" version="1.1" x="0px" y="0px" viewBox="0 0 100 125" style="enable-background:new 0 0 100 100;" xml:space="preserve"><style type="text/css">
	.st0{fill:none;stroke:#000000;stroke-width:2;stroke-linecap:round;stroke-linejoin:round;stroke-miterlimit:10;}
	.st1{fill:none;stroke:#000000;stroke-linecap:round;stroke-linejoin:round;stroke-miterlimit:10;}
	.st2{stroke:#000000;stroke-linecap:round;stroke-linejoin:round;stroke-miterlimit:10;}
</style><path d="M58,11c-0.1,0-4.9,2.8-6.9,4.7c-6.5,6.5-8.5,16.2-5.2,24.7l-0.1,0.1c-1.8,1.8-1.8,4.7,0,6.4l2.6,2.6L20.3,77.8  c-2.9-2.2-7.1-2-9.8,0.7c-1.4,1.4-2.2,3.3-2.2,5.3S9,87.6,10.5,89c1.5,1.5,3.4,2.2,5.3,2.2c1.9,0,3.8-0.7,5.3-2.2  c2.7-2.7,2.9-6.9,0.7-9.8L49.9,51l2.6,2.6c0.9,0.9,2,1.3,3.2,1.3s2.3-0.4,3.2-1.3l0.1-0.1c2.7,1.1,5.6,1.6,8.4,1.6  c6,0,11.9-2.3,16.3-6.7c4.4-4.4,6.8-10.1,6.8-16.3s-2.4-12-6.8-16.3C76.8,8.8,66.5,7.2,58,11z M19.6,87.6c-2.1,2.1-5.6,2.1-7.7,0  c-1-1-1.6-2.4-1.6-3.9s0.6-2.8,1.6-3.9c1.1-1.1,2.5-1.6,3.9-1.6s2.8,0.5,3.9,1.6C21.8,82,21.8,85.4,19.6,87.6z M53.9,52.2l-6.7-6.7  c-0.8-0.8-1-2.1-0.4-3L57,52.6C56,53.2,54.7,53,53.9,52.2z M58.2,51l-9.8-9.8c-2.4-4.9-2.7-10.3-1.2-15.2l26.2,26.2  C68.5,53.7,63.1,53.4,58.2,51z M82.3,46.9c-2,2-4.3,3.5-6.7,4.5L48,23.9c1-2.5,2.6-4.8,4.5-6.7c1.7-1.7,3.6-3,5.6-4l28.2,28.2  c0,0,0,0,0,0C85.3,43.4,84,45.3,82.3,46.9z M87.1,39.4L60.1,12.3c7.5-2.8,16.2-1.2,22.2,4.8C88.3,23.2,89.9,31.9,87.1,39.4z"/><text x="0" y="115" fill="#000000" font-size="5px" font-weight="bold" font-family="'Helvetica Neue', Helvetica, Arial-Unicode, Arial, Sans-serif">Created by Made by Made</text><text x="0" y="120" fill="#000000" font-size="5px" font-weight="bold" font-family="'Helvetica Neue', Helvetica, Arial-Unicode, Arial, Sans-serif">from the Noun Project</text></svg>