<svg xmlns="http://www.w3.org/2000/svg" xmlns:xlink="http://www.w3.org/1999/xlink" version="1.1" x="0px" y="0px" viewBox="0 0 100 125" style="enable-background:new 0 0 100 100;" xml:space="preserve"><style type="text/css">
	.st0{fill:none;stroke:#000000;stroke-width:2;stroke-linecap:round;stroke-linejoin:round;stroke-miterlimit:10;}
	.st1{stroke:#000000;stroke-width:0.25;stroke-linecap:round;stroke-linejoin:round;stroke-miterlimit:10;}
</style><path d="M13.5,31.1h6.2v33.6l-1.5,2.9l-3.5,0.5c-0.4,0.1-0.7,0.3-0.8,0.7c-0.1,0.4,0,0.8,0.3,1l2.5,2.5l-0.6,3.5  c-0.1,0.4,0.1,0.8,0.4,1c0.2,0.1,0.4,0.2,0.6,0.2c0.2,0,0.3,0,0.5-0.1l3.1-1.6l3.1,1.6c0.3,0.2,0.7,0.1,1.1-0.1  c0.3-0.2,0.5-0.6,0.4-1l-0.6-3.5l2.5-2.5c0.3-0.3,0.4-0.7,0.3-1c-0.1-0.4-0.4-0.6-0.8-0.7l-3.5-0.5l-1.5-2.9V31.1h13.1v18.1  c-2.5,1.5-4,4.1-4,7c0,4.5,3.7,8.2,8.2,8.2c3.1,0,5.9-1.7,7.3-4.5c0.2-0.4,0.1-0.8-0.2-1.2c-0.3-0.3-0.8-0.4-1.2-0.2  c-0.9,0.4-1.8,0.7-2.7,0.7c-3.4,0-6.2-2.8-6.2-6.2c0-1,0.2-1.9,0.7-2.7c0,0,0,0,0,0c0,0,0-0.1,0-0.1c0-0.1,0-0.2,0.1-0.3  c0,0,0,0,0-0.1V31.1h13.1v45.8l-1.5,2.9l-3.5,0.5c-0.4,0.1-0.7,0.3-0.8,0.7c-0.1,0.4,0,0.8,0.3,1l2.5,2.5l-0.6,3.5  c-0.1,0.4,0.1,0.8,0.4,1c0.3,0.2,0.7,0.3,1.1,0.1l3.1-1.6L54,89c0.1,0.1,0.3,0.1,0.5,0.1c0.2,0,0.4-0.1,0.6-0.2  c0.3-0.2,0.5-0.6,0.4-1l-0.6-3.5l2.5-2.5c0.3-0.3,0.4-0.7,0.3-1c-0.1-0.4-0.4-0.6-0.8-0.7l-3.5-0.5l-1.5-2.9V31.1h13.1v22.8  l-1.5,2.9L60,57.4c-0.4,0.1-0.7,0.3-0.8,0.7c-0.1,0.4,0,0.8,0.3,1l2.5,2.5L61.4,65c-0.1,0.4,0.1,0.8,0.4,1s0.7,0.3,1.1,0.1l3.1-1.6  l3.1,1.6c0.1,0.1,0.3,0.1,0.5,0.1c0.2,0,0.4-0.1,0.6-0.2c0.3-0.2,0.5-0.6,0.4-1l-0.6-3.5l2.5-2.5c0.3-0.3,0.4-0.7,0.3-1  c-0.1-0.4-0.4-0.6-0.8-0.7l-3.5-0.5l-1.5-2.9V31.1H80v35.2l-1.5,2.9l-3.5,0.5c-0.4,0.1-0.7,0.3-0.8,0.7c-0.1,0.4,0,0.8,0.3,1  l2.5,2.5l-0.6,3.5c-0.1,0.4,0.1,0.8,0.4,1c0.3,0.2,0.7,0.3,1.1,0.1l3.1-1.6l3.1,1.6c0.1,0.1,0.3,0.1,0.5,0.1c0.2,0,0.4-0.1,0.6-0.2  c0.3-0.2,0.5-0.6,0.4-1L85,73.9l2.5-2.5c0.3-0.3,0.4-0.7,0.3-1c-0.1-0.4-0.4-0.6-0.8-0.7l-3.5-0.5L82,66.3V31.1h6.6c0.6,0,1-0.4,1-1  s-0.4-1-1-1H51.9V23c2.8-0.4,5-2.8,5-5.7c0-3.2-2.6-5.7-5.7-5.7s-5.7,2.6-5.7,5.7c0,2.7,1.9,5.1,4.5,5.6v6.1H13.5c-0.6,0-1,0.4-1,1  S12.9,31.1,13.5,31.1z M22.3,69.6l2,0.3l-1.4,1.4c-0.2,0.2-0.3,0.6-0.3,0.9l0.3,2l-1.8-0.9c-0.1-0.1-0.3-0.1-0.5-0.1s-0.3,0-0.5,0.1  l-1.8,0.9l0.3-2c0.1-0.3-0.1-0.7-0.3-0.9l-1.4-1.4l2-0.3c0.3,0,0.6-0.3,0.8-0.5l0.9-1.8l0.9,1.8C21.7,69.3,22,69.5,22.3,69.6z   M42.2,61.1c0.2,0,0.3,0,0.5,0c-1,0.8-2.3,1.2-3.7,1.2c-3.4,0-6.2-2.8-6.2-6.2c0-1.4,0.4-2.6,1.2-3.7c0,0.2,0,0.3,0,0.5  C34,57.4,37.7,61.1,42.2,61.1z M52.5,81.7l2,0.3L53,83.4c-0.2,0.2-0.3,0.6-0.3,0.9l0.3,2l-1.8-0.9c-0.1-0.1-0.3-0.1-0.5-0.1  s-0.3,0-0.5,0.1l-1.8,0.9l0.3-2c0.1-0.3-0.1-0.7-0.3-0.9L47.2,82l2-0.3c0.3,0,0.6-0.3,0.8-0.5l0.9-1.8l0.9,1.8  C51.9,81.4,52.2,81.6,52.5,81.7z M67.6,58.8l2,0.3l-1.4,1.4c-0.2,0.2-0.3,0.6-0.3,0.9l0.3,2l-1.8-0.9c-0.3-0.2-0.6-0.2-0.9,0  l-1.8,0.9l0.3-2c0.1-0.3-0.1-0.7-0.3-0.9l-1.4-1.4l2-0.3c0.3,0,0.6-0.3,0.8-0.5l0.9-1.8l0.9,1.8C67,58.5,67.2,58.7,67.6,58.8z   M82.7,71.1l2,0.3l-1.4,1.4c-0.2,0.2-0.3,0.6-0.3,0.9l0.3,2l-1.8-0.9c-0.1-0.1-0.3-0.1-0.5-0.1s-0.3,0-0.5,0.1l-1.8,0.9l0.3-2  c0.1-0.3-0.1-0.7-0.3-0.9l-1.4-1.4l2-0.3c0.3,0,0.6-0.3,0.8-0.5l0.9-1.8l0.9,1.8C82,70.9,82.3,71.1,82.7,71.1z M47.3,17.3  c0-2.1,1.7-3.7,3.7-3.7s3.7,1.7,3.7,3.7s-1.7,3.7-3.7,3.7S47.3,19.4,47.3,17.3z"/><text x="0" y="115" fill="#000000" font-size="5px" font-weight="bold" font-family="'Helvetica Neue', Helvetica, Arial-Unicode, Arial, Sans-serif">Created by Made by Made</text><text x="0" y="120" fill="#000000" font-size="5px" font-weight="bold" font-family="'Helvetica Neue', Helvetica, Arial-Unicode, Arial, Sans-serif">from the Noun Project</text></svg>