<svg xmlns="http://www.w3.org/2000/svg" xmlns:xlink="http://www.w3.org/1999/xlink" version="1.1" x="0px" y="0px" viewBox="0 0 100 125" style="enable-background:new 0 0 100 100;" xml:space="preserve"><style type="text/css">
	.st0{fill:none;stroke:#000000;stroke-width:2;stroke-linecap:round;stroke-linejoin:round;stroke-miterlimit:10;}
	.st1{fill:none;stroke:#000000;stroke-linecap:round;stroke-linejoin:round;stroke-miterlimit:10;}
	.st2{stroke:#000000;stroke-linecap:round;stroke-linejoin:round;stroke-miterlimit:10;}
</style><path d="M87.2,39.2H72.9c-0.5,0-1,0.1-1.5,0.2c-0.2-1.6-0.9-3.2-2.2-4.4c-1.8-1.8-4.4-2.7-7.4-2.6c-3,0.1-5.6,1.7-6.9,4.2  c-1.1-0.4-2.4-0.3-3.5,0.1c-1.2-1.9-3.4-3-5.7-2.8c-1-2.3-3.2-3.9-5.8-3.9c-3.5,0-6.3,2.8-6.3,6.3c0,0,0,0,0,0  c-1.5-0.1-2.9,0.4-3.9,1.4c-1.5-1.9-3.7-3-6.1-3c-4.2,0-7.6,3.3-7.8,7.5c-4.4-0.1-8,3.4-8,7.8c0,4,3,7.3,6.9,7.7l2.3,18.5  c0.6,5.2,5.1,9.1,10.3,9.1h48.4c5.2,0,9.6-3.9,10.3-9.1l4.5-33.2c0.1-1-0.2-2-0.8-2.8S88.2,39.2,87.2,39.2z M87.2,41.2  c0.4,0,0.8,0.2,1.1,0.5s0.4,0.7,0.4,1.2l-0.4,2.6H77.2c-2.5,0-4.7,1.4-5.7,3.7L70,52.2c-3.2,8.8-8.1,10.4-17.3,10.4H17.4l-0.6-4.8  H50c7.4,0,13.9-0.9,17.4-11.3l1-2.4c0.8-1.8,2.5-2.9,4.4-2.9H87.2z M9.9,50.1c0-3.2,2.6-5.8,5.8-5.8c0.3,0,0.7,0,1.1,0.1  c0.3,0.1,0.6,0,0.9-0.3c0.2-0.2,0.3-0.5,0.3-0.9c0-0.2,0-0.5,0-0.7c0-3.2,2.6-5.8,5.8-5.8c2.2,0,4.1,1.2,5.1,3.1  c0.2,0.3,0.5,0.5,0.9,0.5c0.4,0,0.7-0.2,0.9-0.5c0.8-1.4,2.4-2,4-1.4c0.3,0.1,0.7,0.1,1-0.2c0.3-0.2,0.4-0.6,0.3-1  c-0.1-0.4-0.2-0.8-0.2-1.1c0-2.4,1.9-4.3,4.3-4.3c2,0,3.7,1.3,4.1,3.3c0.1,0.5,0.7,0.9,1.2,0.7c0.3-0.1,0.7-0.1,1-0.1  c1.7,0,3.2,1,3.9,2.5c0.1,0.3,0.3,0.5,0.6,0.5c0.3,0.1,0.6,0,0.8-0.1c1-0.7,2.3-0.7,3.4-0.1c0.3,0.2,0.6,0.2,0.8,0.1  c0.3-0.1,0.5-0.3,0.6-0.6c0.8-2.3,2.9-3.8,5.5-3.9c2.4-0.1,4.5,0.7,5.9,2c1,1,1.6,2.3,1.6,3.7c-1.2,0.7-2.3,1.8-2.8,3.2v0l-1.1,2.5  c-2.9,8.5-7.3,10-15.6,10H15.7c0,0,0,0-0.1,0C12.5,55.8,9.9,53.2,9.9,50.1z M84.1,76c-0.5,4.2-4.1,7.3-8.3,7.3H27.4  c-4.2,0-7.8-3.1-8.3-7.3l-1.4-11.4h35.1c8.2,0,15.2-0.9,19.1-11.6l1.4-3c0.7-1.5,2.2-2.5,3.9-2.5H88L84.1,76z"/><path d="M26.6,19.1c-2.4,0-4.3,1.9-4.3,4.3c0,2.4,1.9,4.3,4.3,4.3c2.4,0,4.3-1.9,4.3-4.3C30.9,21,28.9,19.1,26.6,19.1z M26.6,25.7  c-1.3,0-2.3-1-2.3-2.3c0-1.3,1-2.3,2.3-2.3c1.3,0,2.3,1,2.3,2.3C28.9,24.6,27.8,25.7,26.6,25.7z"/><path d="M53.4,32.6c1.9,0,3.5-1.6,3.5-3.5s-1.6-3.5-3.5-3.5s-3.5,1.6-3.5,3.5S51.5,32.6,53.4,32.6z M53.4,27.6  c0.8,0,1.5,0.7,1.5,1.5s-0.7,1.5-1.5,1.5s-1.5-0.7-1.5-1.5S52.6,27.6,53.4,27.6z"/><path d="M55.5,19c0-2.6-2.1-4.6-4.6-4.6c-2.6,0-4.6,2.1-4.6,4.6c0,2.6,2.1,4.6,4.6,4.6C53.4,23.6,55.5,21.5,55.5,19z M50.9,21.6  c-1.5,0-2.6-1.2-2.6-2.6c0-1.5,1.2-2.6,2.6-2.6c1.5,0,2.6,1.2,2.6,2.6C53.5,20.4,52.3,21.6,50.9,21.6z"/><text x="0" y="115" fill="#000000" font-size="5px" font-weight="bold" font-family="'Helvetica Neue', Helvetica, Arial-Unicode, Arial, Sans-serif">Created by Made by Made</text><text x="0" y="120" fill="#000000" font-size="5px" font-weight="bold" font-family="'Helvetica Neue', Helvetica, Arial-Unicode, Arial, Sans-serif">from the Noun Project</text></svg>